<svg id="Layer_1" data-name="Layer 1" xmlns="http://www.w3.org/2000/svg" xmlns:xlink="http://www.w3.org/1999/xlink" viewBox="0 0 340.16 340.16"><defs><style>.cls-1{fill:url(#linear-gradient);}</style><linearGradient id="linear-gradient" x1="50.98" y1="51.79" x2="289.87" y2="290.68" gradientUnits="userSpaceOnUse"><stop offset="0" stop-color="#09e65a"/><stop offset="0.18" stop-color="#0dd456"/><stop offset="0.5" stop-color="#12b94f"/><stop offset="0.78" stop-color="#15a94b"/><stop offset="1" stop-color="#16a34a"/></linearGradient></defs><path class="cls-1" d="M260,51.35a9.84,9.84,0,0,0-10,10.08,10.4,10.4,0,0,0,10.07,9.78c5.5,0,9.76-4.57,9.69-10.38S266,51.3,260,51.35Zm0,0a9.84,9.84,0,0,0-10,10.08,10.4,10.4,0,0,0,10.07,9.78c5.5,0,9.76-4.57,9.69-10.38S266,51.3,260,51.35Zm0,0a9.84,9.84,0,0,0-10,10.08,10.4,10.4,0,0,0,10.07,9.78c5.5,0,9.76-4.57,9.69-10.38S266,51.3,260,51.35Zm0,0a9.84,9.84,0,0,0-10,10.08,10.4,10.4,0,0,0,10.07,9.78c5.5,0,9.76-4.57,9.69-10.38S266,51.3,260,51.35Zm-89.54-49A168.92,168.92,0,1,0,339.35,171.24,168.92,168.92,0,0,0,170.43,2.32ZM56,195.48c-6.76-23.51-6.83-47,2-69.82C74.4,83.47,105.51,58.84,150,52.6c30.62-4.3,57.63,6.07,81.27,25.47,15.33,12.58,26.24,28.46,33.33,47,2,5.29,1.64,6.25-3.87,7.69-9,2.34-18.3,2.35-27.36,3.85-10.34,1.71-15.22-2-20.64-11-21.72-36.06-73.87-38.37-100-5.25-9.5,12.06-15.14,25.5-14.82,42.56A50.56,50.56,0,0,0,102,184.22c1.41,3.35.57,4.61-3,5.1A152.62,152.62,0,0,0,62.72,199C58.44,200.68,57.07,199.27,56,195.48Zm212.56-8.55C262.87,210.36,251.41,231,238,250.68c-19.8,29-43.88,54.2-69.88,77.6-6.12,5.51-8.19,5.24-14.28-.34-13.54-12.41-26.33-25.58-38.9-39a13.87,13.87,0,0,1-4-12.35c2-15.12,11.23-25.21,22.6-33.86,12.53-9.53,26.83-15.92,41-22.54,17.69-8.31,35.8-15.75,52.49-26.08a58.27,58.27,0,0,0,13.42-10.8c6.8-7.74,5.66-14.92-3.45-19.64-10.91-5.64-22.78-8.14-34.8-10q-30.53-4.62-61.06-9.16c-1.5-.22-3-.54-4.46-.87-2.79-.63-4.07-1.84-1-4.62a19.55,19.55,0,0,0-2.77.51c-2.26.83-6.42-.27-6.36,2.69,0,2.58,4.2,2.24,6.59,2.62,20,3.23,40.09,6.18,60.11,9.43A107.61,107.61,0,0,1,219,161.56a18,18,0,0,1,6,4c3.84,4.06,3.87,8.26.08,12.54-4.11,4.64-9.42,7.62-14.84,10.36-17.21,8.69-35.37,15.1-53.31,22-17.65,6.82-35.48,13.29-51.47,23.79a87,87,0,0,0-16.89,15.14c-2.22,2.48-3.59,2.48-5.53-.34a244.64,244.64,0,0,1-19.17-34.13c-2-4.32.51-5.86,3.63-7.18a168.35,168.35,0,0,1,32.62-9.67c26.57-5.36,53.34-9.7,79.63-16.46,6.19-1.6,12.27-3.48,17.63-7.06,5.65-3.77,5.4-8.4-.69-11.38-7.14-3.49-14.9-5-22.59-6.73-15.7-3.42-31.61-5.59-47.44-8.22a80.34,80.34,0,0,1-9.23-2.31c-1.3-.37-2.71-1.06-2.79-2.66-.09-1.89,1.48-2.64,2.94-3,4.87-1.1,9.75-2.57,14.68-2.91,20.39-1.41,40.81-2.4,61.26-2a2.55,2.55,0,0,1,1.94,1c-18.45,1.08-37,.48-56.05,4.14,2.69,2.55,5.28,2.48,7.65,2.85,26,4,52.34,6,78.25,10.93,12.09,2.29,23.94,5.36,34.6,11.94C268.65,171.69,270.94,177,268.54,186.93ZM281.16,66.71c-1.07,5.85-4.38,10.62-7.87,15.2-3.21,4.2-6.71,8.19-10.14,12.22-1.53,1.79-3.55,2.92-5.43.84-7.5-8.32-15.29-16.48-18.56-27.64a24,24,0,0,1-.59-4.49c0-9.91,4.28-16.29,12.1-20.16s15.4-3,22.17,2.3C279.81,50.46,282.79,57.79,281.16,66.71ZM260,51.35a9.84,9.84,0,0,0-10,10.08,10.4,10.4,0,0,0,10.07,9.78c5.5,0,9.76-4.57,9.69-10.38S266,51.3,260,51.35Zm0,0a9.84,9.84,0,0,0-10,10.08,10.4,10.4,0,0,0,10.07,9.78c5.5,0,9.76-4.57,9.69-10.38S266,51.3,260,51.35Zm0,0a9.84,9.84,0,0,0-10,10.08,10.4,10.4,0,0,0,10.07,9.78c5.5,0,9.76-4.57,9.69-10.38S266,51.3,260,51.35Zm0,0a9.84,9.84,0,0,0-10,10.08,10.4,10.4,0,0,0,10.07,9.78c5.5,0,9.76-4.57,9.69-10.38S266,51.3,260,51.35Zm0,0a9.84,9.84,0,0,0-10,10.08,10.4,10.4,0,0,0,10.07,9.78c5.5,0,9.76-4.57,9.69-10.38S266,51.3,260,51.35Z"/></svg>