<svg id="Layer_1" data-name="Layer 1" xmlns="http://www.w3.org/2000/svg" viewBox="0 0 1379.4 340.16"><defs><style>.cls-1,.cls-2,.cls-3{fill:#fff;}.cls-2{font-size:123.71px;font-family:Poppins-ExtraBold, Poppins;font-weight:800;}.cls-3{font-size:52px;font-family:Poppins-Light, Poppins;font-weight:300;letter-spacing:0.1em;}</style></defs><path class="cls-1" d="M114.62,122.27a20.67,20.67,0,0,0-2.78.52c-2.26.83-6.42-.27-6.36,2.69,0,2.58,4.2,2.24,6.59,2.62,20,3.23,40.09,6.18,60.11,9.42a108.3,108.3,0,0,1,25.76,7.23,17.81,17.81,0,0,1,6,4c3.84,4,3.88,8.26.09,12.54-4.12,4.64-9.43,7.62-14.84,10.35-17.22,8.7-35.37,15.11-53.32,22-17.65,6.82-35.47,13.3-51.47,23.8a86.6,86.6,0,0,0-16.88,15.14c-2.22,2.48-3.6,2.48-5.54-.34a244.58,244.58,0,0,1-19.16-34.13c-2.05-4.32.5-5.86,3.62-7.18a169,169,0,0,1,32.63-9.68c26.57-5.35,53.34-9.7,79.62-16.46,6.19-1.59,12.27-3.47,17.63-7.06,5.65-3.77,5.41-8.39-.69-11.37-7.13-3.49-14.9-5.05-22.59-6.73-15.69-3.42-31.6-5.59-47.43-8.22a82.63,82.63,0,0,1-9.24-2.31c-1.3-.37-2.7-1.06-2.78-2.66-.09-1.89,1.48-2.64,2.94-3,4.87-1.09,9.74-2.56,14.68-2.9,20.39-1.41,40.8-2.4,61.25-2a2.59,2.59,0,0,1,1.95,1c-18.45,1.07-37,.48-56,4.14,2.68,2.55,5.27,2.48,7.65,2.85,26,4,52.34,6,78.24,10.93,12.09,2.29,23.94,5.36,34.6,11.94,8.75,5.4,11,10.75,8.64,20.64-5.68,23.43-17.14,44.08-30.56,63.75-19.8,29-43.87,54.2-69.88,77.6-6.12,5.51-8.19,5.24-14.28-.34-13.54-12.41-26.33-25.58-38.89-39a13.85,13.85,0,0,1-4-12.35c2-15.12,11.23-25.21,22.6-33.86,12.53-9.53,26.83-15.92,41-22.55,17.69-8.3,35.79-15.74,52.48-26.08a58,58,0,0,0,13.43-10.79c6.8-7.74,5.65-14.93-3.46-19.64-10.9-5.64-22.77-8.14-34.79-10-20.35-3.09-40.72-6.1-61.07-9.16-1.5-.22-3-.54-4.46-.88C112.81,126.27,111.53,125.06,114.62,122.27Z"/><path class="cls-1" d="M76.89,146.16A50.71,50.71,0,0,0,81,167.41c1.41,3.35.57,4.61-3,5.1a152.74,152.74,0,0,0-36.35,9.63c-4.28,1.73-5.64.32-6.73-3.47-6.77-23.51-6.83-47,2-69.82C53.37,66.66,84.49,42,129,35.79c30.61-4.3,57.62,6.07,81.27,25.47,15.32,12.58,26.24,28.46,33.32,47,2,5.28,1.64,6.24-3.87,7.68-9,2.35-18.3,2.36-27.35,3.86-10.35,1.71-15.23-2-20.64-11-21.73-36.06-73.88-38.37-100-5.25C82.21,115.66,76.57,129.1,76.89,146.16Z"/><path class="cls-1" d="M217.55,46c0-9.91,4.27-16.29,12.1-20.16s15.39-3,22.17,2.3c7,5.48,9.95,12.81,8.31,21.73-1.07,5.85-4.37,10.62-7.87,15.2-3.21,4.2-6.71,8.19-10.14,12.22-1.53,1.79-3.55,2.92-5.43.83-7.49-8.31-15.29-16.47-18.56-27.63A23.81,23.81,0,0,1,217.55,46Zm31.16-2c-.08-6-3.77-9.54-9.76-9.49a9.86,9.86,0,0,0-10,10.09A10.4,10.4,0,0,0,239,54.4C244.52,54.39,248.78,49.83,248.71,44Z"/><text class="cls-2" transform="translate(280.22 168.97)">GoTour Sri Lanka</text><text class="cls-3" transform="translate(307.33 246.53)">Turn Travel Dreams Into Journeys</text></svg>