<svg id="Layer_1" data-name="Layer 1" xmlns="http://www.w3.org/2000/svg" xmlns:xlink="http://www.w3.org/1999/xlink" viewBox="0 0 1379.4 340.16"><defs><style>.cls-1{fill:url(#linear-gradient);}.cls-2{fill:url(#linear-gradient-2);}.cls-3{fill:url(#linear-gradient-3);}.cls-4{fill:#253d23;}</style><linearGradient id="linear-gradient" x1="62.24" y1="158.21" x2="211.25" y2="244.24" gradientUnits="userSpaceOnUse"><stop offset="0" stop-color="#09e65a"/><stop offset="0.19" stop-color="#0dd255"/><stop offset="0.5" stop-color="#12b84f"/><stop offset="0.78" stop-color="#15a94b"/><stop offset="1" stop-color="#16a34a"/></linearGradient><linearGradient id="linear-gradient-2" x1="51.98" y1="78.21" x2="211.04" y2="170.05" xlink:href="#linear-gradient"/><linearGradient id="linear-gradient-3" x1="218.05" y1="36.83" x2="255.92" y2="58.69" xlink:href="#linear-gradient"/></defs><path class="cls-1" d="M114.54,121.06a19.55,19.55,0,0,0-2.77.51c-2.26.83-6.42-.27-6.36,2.69,0,2.58,4.2,2.24,6.59,2.62,20,3.23,40.09,6.18,60.11,9.43a107.81,107.81,0,0,1,25.76,7.22,17.9,17.9,0,0,1,6,4c3.84,4.06,3.88,8.26.08,12.54-4.11,4.64-9.42,7.62-14.83,10.36-17.22,8.69-35.37,15.1-53.32,22-17.65,6.82-35.47,13.29-51.47,23.79a87,87,0,0,0-16.89,15.14c-2.21,2.48-3.59,2.48-5.53-.34a244.64,244.64,0,0,1-19.17-34.13c-2-4.32.51-5.86,3.63-7.18A168.35,168.35,0,0,1,79,180c26.57-5.36,53.35-9.7,79.63-16.46,6.19-1.6,12.27-3.48,17.63-7.06,5.65-3.77,5.41-8.4-.69-11.38-7.13-3.49-14.9-5-22.59-6.73-15.7-3.42-31.6-5.59-47.44-8.22a80.34,80.34,0,0,1-9.23-2.31c-1.3-.37-2.71-1.06-2.78-2.66-.1-1.89,1.47-2.64,2.93-3,4.87-1.1,9.75-2.57,14.69-2.91,20.38-1.41,40.8-2.4,61.25-2a2.55,2.55,0,0,1,1.94,1c-18.45,1.08-37,.48-56,4.14,2.68,2.55,5.27,2.48,7.64,2.85,26,4,52.34,6,78.25,10.93,12.09,2.29,23.94,5.36,34.6,11.94,8.74,5.4,11,10.75,8.63,20.64-5.67,23.43-17.13,44.09-30.55,63.75-19.8,29-43.88,54.2-69.88,77.6-6.12,5.51-8.19,5.24-14.28-.34-13.54-12.41-26.33-25.58-38.9-39a13.87,13.87,0,0,1-4-12.35c2-15.12,11.23-25.21,22.6-33.86,12.53-9.53,26.83-15.92,40.95-22.54,17.7-8.31,35.8-15.75,52.49-26.08a58.05,58.05,0,0,0,13.42-10.8c6.8-7.74,5.66-14.92-3.45-19.64-10.9-5.64-22.78-8.14-34.79-10q-30.54-4.62-61.07-9.16c-1.5-.22-3-.54-4.46-.87C112.74,125.05,111.46,123.84,114.54,121.06Z"/><path class="cls-2" d="M76.82,144.94a50.56,50.56,0,0,0,4.11,21.25c1.41,3.35.57,4.61-3,5.1a152.62,152.62,0,0,0-36.35,9.63c-4.28,1.73-5.65.32-6.74-3.47-6.76-23.51-6.82-47,2-69.82,16.38-42.19,47.5-66.82,92-73.06,30.61-4.3,57.62,6.07,81.26,25.47,15.33,12.58,26.24,28.46,33.33,47,2,5.29,1.64,6.25-3.87,7.69-9,2.34-18.3,2.35-27.36,3.85-10.34,1.71-15.22-2-20.64-11-21.72-36.06-73.87-38.37-100-5.25C82.14,114.44,76.5,127.88,76.82,144.94Z"/><path class="cls-3" d="M217.47,44.81c0-9.91,4.28-16.29,12.1-20.16s15.4-3,22.17,2.3c7,5.48,9.95,12.81,8.32,21.73-1.07,5.85-4.38,10.62-7.87,15.2-3.21,4.2-6.71,8.19-10.14,12.22-1.53,1.79-3.55,2.92-5.43.84-7.5-8.32-15.29-16.48-18.56-27.64A24,24,0,0,1,217.47,44.81Zm31.17-2c-.08-5.94-3.77-9.53-9.77-9.48a9.84,9.84,0,0,0-10,10.08A10.4,10.4,0,0,0,239,53.18C244.45,53.18,248.71,48.61,248.64,42.8Z"/><path class="cls-4" d="M355.93,88.81a33.22,33.22,0,0,1,13,22H343.31a14.41,14.41,0,0,0-5.81-5.69,18.54,18.54,0,0,0-9-2.1q-8.91,0-14.17,6t-5.25,16q0,11.38,5.62,17.26t16.52,5.87a19.21,19.21,0,0,0,18.31-11.75H325.25V119.12h44.41v24.12a45.67,45.67,0,0,1-15,18.62q-10.33,7.74-26,7.73-13.36,0-23.38-5.62a38.38,38.38,0,0,1-15.4-15.78,48.55,48.55,0,0,1-5.38-23.13A48.2,48.2,0,0,1,289.81,102a38.65,38.65,0,0,1,15.28-15.71q9.89-5.62,23.25-5.63Q345.17,80.65,355.93,88.81Z"/><path class="cls-4" d="M431.94,103a31.31,31.31,0,0,1,12.93,12.37,36.84,36.84,0,0,1,4.7,18.86,36.77,36.77,0,0,1-4.7,18.93,31.82,31.82,0,0,1-12.93,12.37,39.27,39.27,0,0,1-18.61,4.33,39.67,39.67,0,0,1-18.68-4.33,31.73,31.73,0,0,1-13-12.37,36.77,36.77,0,0,1-4.7-18.93,36.76,36.76,0,0,1,4.7-18.92,31.33,31.33,0,0,1,13-12.31,40.12,40.12,0,0,1,18.68-4.27A39.72,39.72,0,0,1,431.94,103Zm-27,20.47q-3.35,3.72-3.34,10.76t3.34,10.89a10.82,10.82,0,0,0,8.41,3.71,10.61,10.61,0,0,0,8.29-3.77q3.33-3.78,3.34-10.83t-3.34-10.76a11.25,11.25,0,0,0-16.7,0Z"/><path class="cls-4" d="M525.28,81.39v19.42H501.65V169H477.41V100.81H454V81.39Z"/><path class="cls-4" d="M584.72,103a31.43,31.43,0,0,1,12.93,12.37,36.94,36.94,0,0,1,4.7,18.86,36.87,36.87,0,0,1-4.7,18.93,31.94,31.94,0,0,1-12.93,12.37,42.33,42.33,0,0,1-37.3,0,31.85,31.85,0,0,1-13-12.37,36.87,36.87,0,0,1-4.7-18.93,36.86,36.86,0,0,1,4.7-18.92,31.45,31.45,0,0,1,13-12.31,42.86,42.86,0,0,1,37.3,0Zm-27,20.47q-3.35,3.72-3.34,10.76t3.34,10.89a10.85,10.85,0,0,0,8.41,3.71,10.61,10.61,0,0,0,8.29-3.77q3.35-3.78,3.34-10.83t-3.34-10.76a10.72,10.72,0,0,0-8.29-3.71A10.85,10.85,0,0,0,557.69,123.45Z"/><path class="cls-4" d="M683.37,99.58V169H659.13V157.35a22.44,22.44,0,0,1-8.66,8.9,25.9,25.9,0,0,1-13.36,3.34q-12,0-18.87-8t-6.86-21.83V99.58h24.24v37.23q0,5.94,3.16,9.34a11,11,0,0,0,8.47,3.4,11.23,11.23,0,0,0,8.66-3.46q3.21-3.47,3.22-9.77V99.58Z"/><path class="cls-4" d="M731.49,102.67A25.15,25.15,0,0,1,744.61,99v26h-7.05q-8.17,0-12.25,3.15T721.23,139V169H696.86V99.58h24.37v13A31.68,31.68,0,0,1,731.49,102.67Z"/><path class="cls-4" d="M837.14,157a25.62,25.62,0,0,1-10.89,9.4,39.22,39.22,0,0,1-17.19,3.46q-15.22,0-25-7.3T773.3,141.76h25.86c.25,3.05,1.19,5.32,2.84,6.8a8.72,8.72,0,0,0,6.07,2.23,7.22,7.22,0,0,0,5-1.61,5.84,5.84,0,0,0,1.79-4.57,6.81,6.81,0,0,0-3.59-6.13,60.58,60.58,0,0,0-11.38-4.76,109.56,109.56,0,0,1-13.67-5.57A25.55,25.55,0,0,1,777,120q-3.88-5.44-3.89-14a23.52,23.52,0,0,1,4.2-14,26.06,26.06,0,0,1,11.51-8.91,42.86,42.86,0,0,1,16.57-3q15.09,0,24.06,7.11t9.84,20h-26.1a9.84,9.84,0,0,0-2.54-6.06,7.39,7.39,0,0,0-5.38-2,6.3,6.3,0,0,0-4.45,1.49,5.73,5.73,0,0,0-1.61,4.45,6.47,6.47,0,0,0,3.52,5.81,62.69,62.69,0,0,0,11.08,4.7,110.89,110.89,0,0,1,13.73,5.82,27.17,27.17,0,0,1,9.4,8.29q4,5.45,4,14.1A24.51,24.51,0,0,1,837.14,157Z"/><path class="cls-4" d="M886.12,102.67A25.15,25.15,0,0,1,899.24,99v26h-7.06q-8.16,0-12.24,3.15T875.86,139V169H851.48V99.58h24.38v13A31.68,31.68,0,0,1,886.12,102.67Z"/><path class="cls-4" d="M909.25,71.43q4-3.53,10.4-3.52c4.28,0,7.71,1.17,10.26,3.52a11.64,11.64,0,0,1,3.84,9,11.1,11.1,0,0,1-3.9,8.66,14.79,14.79,0,0,1-10.2,3.47q-6.43,0-10.4-3.47a11,11,0,0,1-4-8.66A11.47,11.47,0,0,1,909.25,71.43Zm22.4,28.15V169H907.28V99.58Z"/><path class="cls-4" d="M992.38,150.54h27.34V169H968V81.39h24.37Z"/><path class="cls-4" d="M1067.29,101.86a19.59,19.59,0,0,1,8,8.73v-11h24.24V169h-24.24V158a19.56,19.56,0,0,1-8,8.72,24.67,24.67,0,0,1-12.68,3.15,27.16,27.16,0,0,1-15-4.27,28.86,28.86,0,0,1-10.52-12.37,44.05,44.05,0,0,1-3.83-19,43.64,43.64,0,0,1,3.83-18.92A29,29,0,0,1,1039.64,103a27.16,27.16,0,0,1,15-4.27A24.67,24.67,0,0,1,1067.29,101.86Zm-13.86,21.9q-3.53,3.78-3.52,10.45t3.52,10.58a12,12,0,0,0,9.22,3.77,11.83,11.83,0,0,0,9-3.83q3.58-3.84,3.59-10.52t-3.59-10.39a11.87,11.87,0,0,0-9-3.83A12,12,0,0,0,1053.43,123.76Z"/><path class="cls-4" d="M1178.06,106.94q6.81,8,6.81,21.71V169h-24.13V131.74q0-6.06-3.15-9.46a11,11,0,0,0-8.48-3.41,11.12,11.12,0,0,0-8.65,3.53q-3.23,3.52-3.22,9.71V169h-24.37V99.58h24.37V111.2a22.43,22.43,0,0,1,8.66-8.9A25.85,25.85,0,0,1,1159.26,99Q1171.26,99,1178.06,106.94Z"/><path class="cls-4" d="M1241.15,169l-18.93-28.7V169h-24.37V77.43h24.37v49.11l19.06-27h28.32l-27,34.76L1270.35,169Z"/><path class="cls-4" d="M1315.56,101.86a19.47,19.47,0,0,1,8,8.73v-11h24.24V169h-24.24V158a19.45,19.45,0,0,1-8,8.72,24.67,24.67,0,0,1-12.68,3.15,27.16,27.16,0,0,1-15-4.27,28.77,28.77,0,0,1-10.51-12.37,43.91,43.91,0,0,1-3.84-19,43.49,43.49,0,0,1,3.84-18.92A28.89,28.89,0,0,1,1287.91,103a27.16,27.16,0,0,1,15-4.27A24.67,24.67,0,0,1,1315.56,101.86Zm-13.86,21.9q-3.53,3.78-3.52,10.45t3.52,10.58a12,12,0,0,0,9.22,3.77,11.82,11.82,0,0,0,9-3.83q3.58-3.84,3.59-10.52T1320,123.82a11.85,11.85,0,0,0-9-3.83A12.06,12.06,0,0,0,1301.7,123.76Z"/><path class="cls-4" d="M332.76,209.88v3H322.31v33.7h-3.64v-33.7h-10.4v-3Z"/><path class="cls-4" d="M367.5,218.14v28.4h-3.64v-7a9.86,9.86,0,0,1-4,5.61,11.47,11.47,0,0,1-6.55,1.93,10.81,10.81,0,0,1-8.08-3.15q-3.11-3.15-3.1-9.23V218.14h3.64v16.23q0,4.68,2.34,7.15a8.41,8.41,0,0,0,6.4,2.47,8.78,8.78,0,0,0,6.78-2.73c1.68-1.82,2.53-4.5,2.53-8V218.14Z"/><path class="cls-4" d="M388.5,219.29a12.77,12.77,0,0,1,6.71-1.67v4H394a10.41,10.41,0,0,0-6.82,2.21q-2.7,2.21-2.7,7.2v15.55h-3.69v-28.4h3.69V224A9.59,9.59,0,0,1,388.5,219.29Z"/><path class="cls-4" d="M427.63,220.77q3.09,3.15,3.1,9.23v16.54h-3.59V230.26c0-3.09-.78-5.45-2.34-7.1a8.41,8.41,0,0,0-6.4-2.47,8.78,8.78,0,0,0-6.78,2.73c-1.68,1.82-2.53,4.5-2.53,8v15.08H405.4v-28.4h3.69v7a9.87,9.87,0,0,1,4-5.56,11.47,11.47,0,0,1,6.55-1.93A10.76,10.76,0,0,1,427.63,220.77Z"/><path class="cls-4" d="M484.13,209.88v3H473.68v33.7H470v-33.7h-10.4v-3Z"/><path class="cls-4" d="M502.07,219.29a12.75,12.75,0,0,1,6.71-1.67v4h-1.2a10.36,10.36,0,0,0-6.81,2.21q-2.7,2.21-2.7,7.2v15.55h-3.7v-28.4h3.7V224A9.54,9.54,0,0,1,502.07,219.29Z"/><path class="cls-4" d="M538.29,220a11.26,11.26,0,0,1,4.18,5.92v-7.8h3.59v28.4h-3.59v-7.8a11.26,11.26,0,0,1-4.18,5.92,12.09,12.09,0,0,1-7.36,2.24,13.44,13.44,0,0,1-6.89-1.77,12,12,0,0,1-4.73-5.07,18.59,18.59,0,0,1,0-15.49,11.86,11.86,0,0,1,4.7-5,13.6,13.6,0,0,1,6.92-1.74A12.09,12.09,0,0,1,538.29,220Zm-14.1,4c-1.92,2-2.88,4.79-2.88,8.29s1,6.27,2.88,8.29a10.1,10.1,0,0,0,7.67,3.05,10.58,10.58,0,0,0,5.44-1.41,9.86,9.86,0,0,0,3.8-4,13.61,13.61,0,0,0,0-11.9,9.86,9.86,0,0,0-3.8-4,10.58,10.58,0,0,0-5.44-1.41A10.1,10.1,0,0,0,524.19,224.05Z"/><path class="cls-4" d="M569.82,242.43l9.52-24.29h3.95l-11.44,28.4h-4.16l-11.44-28.4h4Z"/><path class="cls-4" d="M612.31,242a7.75,7.75,0,0,0,3.12-5.2h3.85a11.53,11.53,0,0,1-4.32,7.33A14,14,0,0,1,606,246.9a14.65,14.65,0,0,1-7.21-1.74,12.2,12.2,0,0,1-4.91-5,17.94,17.94,0,0,1,0-15.54,12.2,12.2,0,0,1,4.91-5,14.65,14.65,0,0,1,7.21-1.74,14.27,14.27,0,0,1,7.2,1.74,11.85,11.85,0,0,1,4.63,4.66,13.1,13.1,0,0,1,1.58,6.34,15.39,15.39,0,0,1-.21,2.65h-23.5a12,12,0,0,0,1.48,6,8.89,8.89,0,0,0,3.72,3.56,10.9,10.9,0,0,0,4.94,1.14A10.59,10.59,0,0,0,612.31,242ZM601,221.89a9.07,9.07,0,0,0-3.72,3.51,12,12,0,0,0-1.53,5.9h20.07a10.5,10.5,0,0,0-1.14-5.88,8.53,8.53,0,0,0-3.64-3.53,11.06,11.06,0,0,0-5-1.15A11.19,11.19,0,0,0,601,221.89Z"/><path class="cls-4" d="M635,208.06v38.48h-3.69V208.06Z"/><path class="cls-4" d="M695.3,238a15,15,0,0,1-6.58,6.35,22.91,22.91,0,0,1-10.48,2.21H667.17V209.88h11.07q9.25,0,14.28,4.86t5,13.44A20.29,20.29,0,0,1,695.3,238Zm-5.51,1.3q4.05-4,4.05-11.1t-4.05-11.1q-4.06-4-11.81-4h-7.12v30.16H678Q685.73,243.26,689.79,239.28Z"/><path class="cls-4" d="M717.24,219.29a12.77,12.77,0,0,1,6.71-1.67v4h-1.2a10.38,10.38,0,0,0-6.81,2.21q-2.7,2.21-2.7,7.2v15.55h-3.69v-28.4h3.69V224A9.54,9.54,0,0,1,717.24,219.29Z"/><path class="cls-4" d="M753,242a7.75,7.75,0,0,0,3.12-5.2h3.84a11.52,11.52,0,0,1-4.31,7.33,14,14,0,0,1-9,2.81,14.64,14.64,0,0,1-7.2-1.74,12.14,12.14,0,0,1-4.91-5,17.94,17.94,0,0,1,0-15.54,12.14,12.14,0,0,1,4.91-5,14.64,14.64,0,0,1,7.2-1.74,14.28,14.28,0,0,1,7.21,1.74,11.82,11.82,0,0,1,4.62,4.66,13,13,0,0,1,1.59,6.34,15.39,15.39,0,0,1-.21,2.65h-23.5a12,12,0,0,0,1.48,6,8.89,8.89,0,0,0,3.72,3.56,10.9,10.9,0,0,0,4.94,1.14A10.59,10.59,0,0,0,753,242Zm-11.34-20.07a9,9,0,0,0-3.72,3.51,12,12,0,0,0-1.53,5.9h20.07a10.5,10.5,0,0,0-1.14-5.88,8.59,8.59,0,0,0-3.64-3.53,11.53,11.53,0,0,0-10,0Z"/><path class="cls-4" d="M791.32,220a11.32,11.32,0,0,1,4.18,5.92v-7.8h3.59v28.4H795.5v-7.8a11.32,11.32,0,0,1-4.18,5.92A12.09,12.09,0,0,1,784,246.9a13.44,13.44,0,0,1-6.89-1.77,12,12,0,0,1-4.73-5.07,18.59,18.59,0,0,1,0-15.49,11.86,11.86,0,0,1,4.7-5,13.6,13.6,0,0,1,6.92-1.74A12.09,12.09,0,0,1,791.32,220Zm-14.1,4c-1.92,2-2.88,4.79-2.88,8.29s1,6.27,2.88,8.29a10.08,10.08,0,0,0,7.67,3.05,10.61,10.61,0,0,0,5.44-1.41,9.77,9.77,0,0,0,3.79-4,13.52,13.52,0,0,0,0-11.9,9.77,9.77,0,0,0-3.79-4,10.61,10.61,0,0,0-5.44-1.41A10.08,10.08,0,0,0,777.22,224.05Z"/><path class="cls-4" d="M854.76,220.77q3,3.15,3,9.23v16.54h-3.64V230.26q0-4.57-2.21-7a7.77,7.77,0,0,0-6.06-2.44,8.4,8.4,0,0,0-6.55,2.7q-2.45,2.7-2.45,8v15.08h-3.58V230.26q0-4.57-2.21-7A7.77,7.77,0,0,0,825,220.8a8.38,8.38,0,0,0-6.55,2.7q-2.44,2.7-2.45,8v15.08h-3.69v-28.4H816v6.76a9.45,9.45,0,0,1,3.77-5.43,11,11,0,0,1,6.32-1.85,10.61,10.61,0,0,1,6.45,2,10.22,10.22,0,0,1,3.74,5.82,10.45,10.45,0,0,1,4-5.79,11,11,0,0,1,6.5-2A10.54,10.54,0,0,1,854.76,220.77Z"/><path class="cls-4" d="M886.81,220.22a10.47,10.47,0,0,1,3.44,6.61h-3.49a7,7,0,0,0-2.26-4.55,7.4,7.4,0,0,0-5.23-1.8,6.47,6.47,0,0,0-4.39,1.38,4.61,4.61,0,0,0-1.59,3.67,3.75,3.75,0,0,0,1,2.75,6.39,6.39,0,0,0,2.52,1.59,35,35,0,0,0,4.06,1.12,35.77,35.77,0,0,1,5,1.48,8,8,0,0,1,3.25,2.37,6.58,6.58,0,0,1,1.36,4.36,7,7,0,0,1-2.53,5.54,9.92,9.92,0,0,1-6.68,2.16,12.71,12.71,0,0,1-8-2.42,9.66,9.66,0,0,1-3.69-6.63h3.54a6.71,6.71,0,0,0,2.44,4.58,8.76,8.76,0,0,0,5.77,1.77,6,6,0,0,0,4.22-1.41,4.75,4.75,0,0,0,1.5-3.64,4,4,0,0,0-1-2.91,6.53,6.53,0,0,0-2.57-1.64,43.15,43.15,0,0,0-4.19-1.17,37.63,37.63,0,0,1-4.91-1.45,7.87,7.87,0,0,1-3.15-2.27,6.28,6.28,0,0,1-1.3-4.18,7,7,0,0,1,2.55-5.62,10.47,10.47,0,0,1,6.92-2.13A10.91,10.91,0,0,1,886.81,220.22Z"/><path class="cls-4" d="M925.08,209.88v36.66h-3.69V209.88Z"/><path class="cls-4" d="M960.57,220.77q3.1,3.15,3.1,9.23v16.54h-3.59V230.26c0-3.09-.78-5.45-2.34-7.1a8.41,8.41,0,0,0-6.4-2.47,8.78,8.78,0,0,0-6.78,2.73q-2.52,2.73-2.52,8v15.08h-3.7v-28.4H942v7a9.81,9.81,0,0,1,4-5.56,11.47,11.47,0,0,1,6.55-1.93A10.76,10.76,0,0,1,960.57,220.77Z"/><path class="cls-4" d="M989.62,243.31v3.23h-3.38q-4.11,0-6.14-1.95c-1.35-1.3-2-3.5-2-6.58V221.32h-4.31v-3.18h4.31V211h3.69v7.17h7.8v3.18h-7.8v16.74c0,2,.37,3.39,1.1,4.13s2,1.12,3.84,1.12Z"/><path class="cls-4" d="M1021.05,219.52a12.46,12.46,0,0,1,5,5,17.45,17.45,0,0,1,0,15.52,12.74,12.74,0,0,1-5,5,15.79,15.79,0,0,1-14.53,0,12.75,12.75,0,0,1-5.07-5.07,17.14,17.14,0,0,1,0-15.49,12.51,12.51,0,0,1,5.07-5,16,16,0,0,1,14.53,0Zm-12.45,2.68a9.37,9.37,0,0,0-3.85,3.82,12.68,12.68,0,0,0-1.46,6.32,12.51,12.51,0,0,0,1.46,6.29,9.38,9.38,0,0,0,3.85,3.8,11.06,11.06,0,0,0,5.2,1.25,10.86,10.86,0,0,0,5.12-1.25,9.49,9.49,0,0,0,3.82-3.8,12.51,12.51,0,0,0,1.46-6.29,12.68,12.68,0,0,0-1.46-6.32,9.49,9.49,0,0,0-3.82-3.82,10.86,10.86,0,0,0-5.12-1.25A11.06,11.06,0,0,0,1008.6,222.2Z"/><path class="cls-4" d="M1075.31,209.88V237.7a8.6,8.6,0,0,1-9.25,9.2,9.68,9.68,0,0,1-7.39-2.81q-2.65-2.81-2.65-7.85h3.64a8.6,8.6,0,0,0,1.51,5.33,5.54,5.54,0,0,0,4.73,2c2,0,3.51-.56,4.39-1.69a6.52,6.52,0,0,0,1.33-4.18V209.88Z"/><path class="cls-4" d="M1108.41,219.52a12.46,12.46,0,0,1,5,5,17.45,17.45,0,0,1,0,15.52,12.74,12.74,0,0,1-5,5,14.73,14.73,0,0,1-7.26,1.77,14.89,14.89,0,0,1-7.28-1.77,12.72,12.72,0,0,1-5.06-5.07,17.14,17.14,0,0,1,0-15.49,12.49,12.49,0,0,1,5.06-5,15.09,15.09,0,0,1,7.28-1.74A14.93,14.93,0,0,1,1108.41,219.52ZM1096,222.2a9.41,9.41,0,0,0-3.84,3.82,12.68,12.68,0,0,0-1.46,6.32,12.51,12.51,0,0,0,1.46,6.29,9.42,9.42,0,0,0,3.84,3.8,11.12,11.12,0,0,0,5.2,1.25,10.87,10.87,0,0,0,5.13-1.25,9.49,9.49,0,0,0,3.82-3.8,12.51,12.51,0,0,0,1.46-6.29,12.68,12.68,0,0,0-1.46-6.32,9.49,9.49,0,0,0-3.82-3.82,10.87,10.87,0,0,0-5.13-1.25A11.12,11.12,0,0,0,1096,222.2Z"/><path class="cls-4" d="M1151.65,218.14v28.4H1148v-7a9.86,9.86,0,0,1-4,5.61,11.47,11.47,0,0,1-6.55,1.93,10.81,10.81,0,0,1-8.08-3.15q-3.11-3.15-3.1-9.23V218.14H1130v16.23q0,4.68,2.34,7.15a8.41,8.41,0,0,0,6.4,2.47,8.78,8.78,0,0,0,6.78-2.73q2.54-2.73,2.53-8V218.14Z"/><path class="cls-4" d="M1172.65,219.29a12.77,12.77,0,0,1,6.71-1.67v4h-1.19a10.41,10.41,0,0,0-6.82,2.21q-2.7,2.21-2.7,7.2v15.55H1165v-28.4h3.69V224A9.59,9.59,0,0,1,1172.65,219.29Z"/><path class="cls-4" d="M1211.78,220.77q3.1,3.15,3.1,9.23v16.54h-3.59V230.26c0-3.09-.78-5.45-2.34-7.1a8.41,8.41,0,0,0-6.4-2.47,8.78,8.78,0,0,0-6.78,2.73q-2.52,2.73-2.52,8v15.08h-3.7v-28.4h3.7v7a9.81,9.81,0,0,1,4-5.56,11.47,11.47,0,0,1,6.55-1.93A10.76,10.76,0,0,1,1211.78,220.77Z"/><path class="cls-4" d="M1246.75,242a7.68,7.68,0,0,0,3.12-5.2h3.85a11.56,11.56,0,0,1-4.31,7.33,14,14,0,0,1-9,2.81,14.64,14.64,0,0,1-7.2-1.74,12.08,12.08,0,0,1-4.91-5,17.94,17.94,0,0,1,0-15.54,12.08,12.08,0,0,1,4.91-5,14.64,14.64,0,0,1,7.2-1.74,14.24,14.24,0,0,1,7.2,1.74,11.85,11.85,0,0,1,4.63,4.66,13,13,0,0,1,1.59,6.34,15.39,15.39,0,0,1-.21,2.65h-23.5a11.88,11.88,0,0,0,1.48,6,8.89,8.89,0,0,0,3.72,3.56,10.9,10.9,0,0,0,4.94,1.14A10.54,10.54,0,0,0,1246.75,242Zm-11.33-20.07a9,9,0,0,0-3.72,3.51,11.86,11.86,0,0,0-1.53,5.9h20.07a10.5,10.5,0,0,0-1.15-5.88,8.48,8.48,0,0,0-3.64-3.53,11.51,11.51,0,0,0-10,0Z"/><path class="cls-4" d="M1266.57,218.14l9.88,23.66,9.1-23.66h4L1272.91,260h-4.16l5.72-13.73-12-28.08Z"/><path class="cls-4" d="M1315.6,220.22a10.46,10.46,0,0,1,3.43,6.61h-3.48a7,7,0,0,0-2.26-4.55,7.4,7.4,0,0,0-5.23-1.8,6.45,6.45,0,0,0-4.39,1.38,4.61,4.61,0,0,0-1.59,3.67,3.75,3.75,0,0,0,1,2.75,6.39,6.39,0,0,0,2.52,1.59,34.69,34.69,0,0,0,4.05,1.12,36,36,0,0,1,5,1.48,8,8,0,0,1,3.25,2.37,6.57,6.57,0,0,1,1.35,4.36,7,7,0,0,1-2.52,5.54,9.92,9.92,0,0,1-6.68,2.16,12.71,12.71,0,0,1-8-2.42,9.66,9.66,0,0,1-3.69-6.63h3.54a6.67,6.67,0,0,0,2.44,4.58,8.74,8.74,0,0,0,5.77,1.77,5.92,5.92,0,0,0,4.21-1.41,4.72,4.72,0,0,0,1.51-3.64,4.07,4.07,0,0,0-1-2.91,6.53,6.53,0,0,0-2.57-1.64c-1-.36-2.42-.75-4.19-1.17a37.63,37.63,0,0,1-4.91-1.45,7.87,7.87,0,0,1-3.15-2.27,6.23,6.23,0,0,1-1.3-4.18,7,7,0,0,1,2.55-5.62,10.45,10.45,0,0,1,6.92-2.13A10.91,10.91,0,0,1,1315.6,220.22Z"/></svg>